<svg width="280" height="280" viewBox="0 0 280 280" fill="none" xmlns="http://www.w3.org/2000/svg">
<path d="M242.748 2.8875C241.085 1.05 238.74 0 236.255 0H43.7555C41.288 0 38.9255 1.05 37.263 2.8875C35.618 4.7075 34.7955 7.1575 35.0405 9.625L61.2905 272.125C61.7455 276.605 65.508 280 70.0055 280H210.005C214.503 280 218.265 276.605 218.703 272.125L244.953 9.625C245.215 7.1575 244.41 4.7075 242.748 2.8875Z" fill="#ECEFF1"/>
<path d="M224 61.6197L205.491 263H72.7522L52 37.8202C75.3696 29.6836 110.891 24.1914 139.122 49.4148C166.417 73.8245 200.817 69.3494 224 61.6197Z" fill="#2196F3"/>
</svg>
